<svg xmlns="http://www.w3.org/2000/svg" viewBox="0 0 1000 500">
  <style>
    .box {
      fill: #FFFFFF;
      stroke: #000000;
      stroke-width: 1.5px;
    }
    .label {
      font-family: Arial, sans-serif;
      font-size: 12px;
      text-anchor: middle;
    }
    .line {
      fill: none;
      stroke: #FF0000;
      stroke-width: 2px;
      stroke-dasharray: 4;
      animation: dash 1s linear infinite;
    }
    @keyframes dash {
      to {
        stroke-dashoffset: -20;
      }
    }
  </style>
  <g>
    <!-- Ingress Controller -->
    <rect x="50" y="50" width="150" height="40" class="box" />
    <text x="125" y="75" class="label">Ingress Controller</text>

    <!-- Pod 1 -->
    <rect x="50" y="150" width="120" height="40" class="box" />
    <text x="110" y="175" class="label">Pod</text>

    <!-- Pod 2 -->
    <rect x="250" y="150" width="120" height="40" class="box" />
    <text x="310" y="175" class="label">Pod</text>

    <!-- Service -->
    <rect x="150" y="250" width="150" height="40" class="box" />
    <text x="225" y="275" class="label">Service</text>

    <!-- Internet -->
    <rect x="400" y="250" width="150" height="40" class="box" />
    <text x="475" y="275" class="label">Internet</text>

    <!-- Node -->
    <rect x="650" y="250" width="100" height="40" class="box" />
    <text x="700" y="275" class="label">Node</text>

    <!-- Connections -->
    <!-- Ingress Controller to Pod 1 -->
    <path d="M 125 90 L 110 150" class="line" />
    <text x="115" y="120" font-family="Arial" font-size="10px" fill="#000">Ingress Traffic</text>

    <!-- Ingress Controller to Pod 2 -->
    <path d="M 125 90 L 310 150" class="line" />
    <text x="225" y="120" font-family="Arial" font-size="10px" fill="#000">Ingress Traffic</text>

    <!-- Pod 1 to Service -->
    <path d="M 110 190 L 225 250" class="line" />
    <text x="165" y="210" font-family="Arial" font-size="10px" fill="#000">Routes to</text>

    <!-- Pod 2 to Service -->
    <path d="M 310 190 L 225 250" class="line" />
    <text x="265" y="210" font-family="Arial" font-size="10px" fill="#000">Routes to</text>

    <!-- Service to Internet -->
    <path d="M 300 270 L 400 270" class="line" />
    <text x="350" y="260" font-family="Arial" font-size="10px" fill="#000">Egress Traffic</text>

    <!-- Internet to Node -->
    <path d="M 550 270 L 650 270" class="line" />
    <text x="600" y="260" font-family="Arial" font-size="10px" fill="#000">Egress Traffic</text>

    <!-- Node to Service -->
    <path d="M 700 290 Q 475 350 225 290" class="line" />
    <text x="475" y="320" font-family="Arial" font-size="10px" fill="#000">SNAT</text>
  </g>
</svg>
