<svg xmlns="http://www.w3.org/2000/svg" viewBox="0 0 800 400">
  <style>
    .marching-ant {
      fill: none;
      stroke: #FF0000;
      stroke-width: 2px;
      vector-effect: non-scaling-stroke;
      stroke-dasharray: 4px;
      animation: stroke 0.5s linear infinite;
      stroke-dashoffset: 8px;
    }
    @keyframes stroke {
      to {
        stroke-dashoffset: 0;
      }
    }
    .box {
      fill: #FFFFFF;
      stroke: #000000;
      stroke-width: 1.5px;
    }
    .label {
      font-family: Arial, sans-serif;
      font-size: 12px;
      text-anchor: middle;
    }
  </style>
  <g>
    <!-- Node 1 -->
    <rect x="100" y="20" width="150" height="40" class="box" />
    <text x="175" y="45" class="label">Node 1 (CIDR Range)</text>

    <!-- Pod 1A -->
    <rect x="50" y="100" width="100" height="40" class="box" />
    <text x="100" y="125" class="label">Pod 1A</text>

    <!-- Pod 1B -->
    <rect x="200" y="100" width="100" height="40" class="box" />
    <text x="250" y="125" class="label">Pod 1B</text>

    <!-- Node Network 1 -->
    <rect x="125" y="200" width="150" height="40" class="box" />
    <text x="200" y="225" class="label">Node Network</text>

    <!-- Node 2 -->
    <rect x="550" y="20" width="150" height="40" class="box" />
    <text x="625" y="45" class="label">Node 2 (CIDR Range)</text>

    <!-- Pod 2A -->
    <rect x="500" y="100" width="100" height="40" class="box" />
    <text x="550" y="125" class="label">Pod 2A</text>

    <!-- Pod 2B -->
    <rect x="650" y="100" width="100" height="40" class="box" />
    <text x="700" y="125" class="label">Pod 2B</text>

    <!-- Node Network 2 -->
    <rect x="575" y="200" width="150" height="40" class="box" />
    <text x="650" y="225" class="label">Node Network</text>

    <!-- CNI Plugin -->
    <rect x="350" y="280" width="100" height="40" class="box" />
    <text x="400" y="305" class="label">CNI Plugin</text>

    <!-- Connections -->
    <path d="M 100 140 L 200 200" class="marching-ant" /> <!-- Pod 1A to Node Network -->
    <path d="M 250 140 L 200 200" class="marching-ant" /> <!-- Pod 1B to Node Network -->
    <path d="M 200 240 L 400 300" class="marching-ant" /> <!-- Node Network 1 to CNI Plugin -->
    <path d="M 400 300 L 650 240" class="marching-ant" /> <!-- CNI Plugin to Node Network 2 -->
    <path d="M 600 200 L 550 140" class="marching-ant" /> <!-- Node Network 2 to Pod 2A -->
    <path d="M 650 200 L 700 140" class="marching-ant" /> <!-- Node Network 2 to Pod 2B -->
  </g>
</svg>
