<svg xmlns="http://www.w3.org/2000/svg" viewBox="0 0 1000 400">
  <style>
    .box {
      fill: #FFFFFF;
      stroke: #000000;
      stroke-width: 1.5px;
    }
    .label {
      font-family: Arial, sans-serif;
      font-size: 12px;
      text-anchor: middle;
    }
    .line {
      fill: none;
      stroke: #FF0000;
      stroke-width: 2px;
      stroke-dasharray: 4;
      animation: dash 1s linear infinite;
    }
    .dashed {
      fill: none;
      stroke: #000000;
      stroke-width: 2px;
      stroke-dasharray: 6, 3;
      animation: dash 1s linear infinite;
    }
    @keyframes dash {
      to {
        stroke-dashoffset: -20;
      }
    }
  </style>
  <g>
    <!-- Node 1 -->
    <rect x="100" y="20" width="150" height="40" class="box" />
    <text x="175" y="45" class="label">Node 1</text>
    <!-- Pod 1 -->
    <rect x="50" y="100" width="80" height="40" class="box" />
    <text x="90" y="125" class="label">Pod 1</text>
    <!-- Pod 2 -->
    <rect x="200" y="100" width="80" height="40" class="box" />
    <text x="240" y="125" class="label">Pod 2</text>
    <!-- Virtual Bridge 1 -->
    <rect x="125" y="200" width="150" height="40" class="box" />
    <text x="200" y="225" class="label">Virtual Bridge</text>
    <!-- kube-proxy 1 -->
    <rect x="125" y="300" width="150" height="40" class="box" />
    <text x="200" y="325" class="label">kube-proxy/IPVS</text>
    <!-- Cluster Network -->
    <rect x="455" y="300" width="150" height="40" class="box" />
    <text x="530" y="325" class="label">Cluster Network</text>
    <!-- Node 2 -->
    <rect x="800" y="20" width="150" height="40" class="box" />
    <text x="875" y="45" class="label">Node 2</text>
    <!-- Pod 3 -->
    <rect x="750" y="100" width="80" height="40" class="box" />
    <text x="790" y="125" class="label">Pod 3</text>
    <!-- Pod 4 -->
    <rect x="900" y="100" width="80" height="40" class="box" />
    <text x="940" y="125" class="label">Pod 4</text>
    <!-- Virtual Bridge 2 -->
    <rect x="825" y="200" width="150" height="40" class="box" />
    <text x="900" y="225" class="label">Virtual Bridge</text>
    <!-- kube-proxy 2 -->
    <rect x="825" y="300" width="150" height="40" class="box" />
    <text x="900" y="325" class="label">kube-proxy/IPVS</text>
    <!-- Connections -->
    <path d="M 90 140 Q 90 170 200 200" class="line" /> <!-- Pod 1 to Virtual Bridge 1 -->
    <path d="M 240 140 Q 240 170 200 200" class="line" /> <!-- Pod 2 to Virtual Bridge 1 -->
    <path d="M 200 240 L 200 300" class="line" /> <!-- Virtual Bridge 1 to kube-proxy 1 -->
    <path d="M 200 340 C 300 360, 400 360, 540 340" class="dashed" /> <!-- kube-proxy 1 to Cluster Network -->
    <path d="M 900 140 Q 900 170 900 200" class="line" /> <!-- Pod 4 to Virtual Bridge 2 -->
    <path d="M 790 140 Q 790 170 900 200" class="line" /> <!-- Pod 3 to Virtual Bridge 2 -->
    <path d="M 900 240 L 900 300" class="line" /> <!-- Virtual Bridge 2 to kube-proxy 2 -->
    <path d="M 900 340 C 800 360, 600 360, 540 340" class="dashed" /> <!-- kube-proxy 2 to Cluster Network -->
  </g>
</svg>
