<svg xmlns="http://www.w3.org/2000/svg" viewBox="0 0 900 550">
  <style>
    .box {
      fill: #f9f9f9;
      stroke: #000000;
      stroke-width: 2px;
      rx: 10;
      ry: 10;
      filter: drop-shadow(2px 2px 3px rgba(0,0,0,0.2));
    }
    .label {
      font-family: Arial, sans-serif;
      font-size: 14px;
      text-anchor: middle;
      font-weight: bold;
      dominant-baseline: central;
      fill: #333333;
    }
    .marching-ant {
      fill: none;
      stroke: #4A90E2;
      stroke-width: 2.5px;
      stroke-dasharray: 8;
      animation: dash-reverse 1.5s linear infinite;
    }
    @keyframes dash-reverse {
      from {
        stroke-dashoffset: 12;
      }
      to {
        stroke-dashoffset: 0;
      }
    }
  </style>
  
  <defs>
    <marker id="arrowhead" markerWidth="10" markerHeight="7" 
      refX="9" refY="3.5" orient="auto">
      <polygon points="0 0, 10 3.5, 0 7" fill="#4A90E2"/>
    </marker>
  </defs>
  
  <!-- Pod -->
  <rect x="50" y="80" width="160" height="50" class="box" />
  <text x="130" y="105" class="label">Pod</text>
  
  <!-- AWS STS -->
  <rect x="250" y="80" width="160" height="50" class="box" />
  <text x="330" y="105" class="label">AWS STS</text>
  
  <!-- IAM -->
  <rect x="450" y="80" width="160" height="50" class="box" />
  <text x="530" y="105" class="label">IAM</text>
  
  <!-- OIDC Provider -->
  <rect x="650" y="80" width="160" height="50" class="box" />
  <text x="730" y="105" class="label">OIDC Provider</text>
  
  <!-- IAM Confirms Auth -->
  <rect x="450" y="180" width="160" height="50" class="box" />
  <text x="530" y="205" class="label">IAM Confirms</text>
  
  <!-- STS Issues Credentials -->
  <rect x="250" y="280" width="160" height="50" class="box" />
  <text x="330" y="300" class="label">STS Issues</text>
  <text x="330" y="315" class="label">Temp Credentials</text>
  
  <!-- Pod Receives Credentials -->
  <rect x="50" y="380" width="160" height="50" class="box" />
  <text x="130" y="400" class="label">Pod Uses</text>
  <text x="130" y="415" class="label">Credentials</text>
  
  <!-- S3 -->
  <rect x="450" y="480" width="160" height="50" class="box" />
  <text x="530" y="505" class="label">S3</text>
  
  <!-- Connections -->
  <path d="M 210 105 L 250 105" class="marching-ant" /> <!-- Pod to AWS STS -->
  <path d="M 410 105 L 450 105" class="marching-ant" /> <!-- STS to IAM -->
  <path d="M 610 105 L 650 105" class="marching-ant" /> <!-- IAM to OIDC Provider -->
  <path d="M 530 130 L 530 180" class="marching-ant" /> <!-- IAM to IAM Confirms -->
  <path d="M 530 230 L 330 280" class="marching-ant" /> <!-- IAM Confirms to STS Issues Credentials -->
  <path d="M 330 330 L 130 380" class="marching-ant" /> <!-- STS to Pod Receives Credentials -->
  <path d="M 130 430 L 530 480" class="marching-ant" /> <!-- Pod Uses Credentials to S3 -->
</svg>
