<svg xmlns="http://www.w3.org/2000/svg" viewBox="0 0 800 400">
  <style>
    .box {
      fill: #FFFFFF;
      stroke: #000000;
      stroke-width: 1px;
    }
    .label {
      font-family: Arial, sans-serif;
      font-size: 12px;
      text-anchor: middle;
    }
    .marching-ant {
      fill: none;
      stroke: #FF0000;
      stroke-width: 2px;
      stroke-dasharray: 4;
      animation: dash 1s linear infinite;
    }
    @keyframes dash {
      from {
        stroke-dashoffset: 0;
      }
      to {
        stroke-dashoffset: 8;
      }
    }
  </style>

  <!-- ArgoCD API Server -->
  <rect x="350" y="50" width="100" height="40" class="box" />
  <text x="400" y="75" class="label">API Server</text>

  <!-- Controller -->
  <rect x="200" y="150" width="120" height="40" class="box" />
  <text x="260" y="175" class="label">Controller</text>

  <!-- Repository Server -->
  <rect x="480" y="150" width="140" height="40" class="box" />
  <text x="550" y="175" class="label">Repository Server</text>

  <!-- Application Controller -->
  <rect x="340" y="250" width="140" height="40" class="box" />
  <text x="410" y="275" class="label">Application Controller</text>

  <!-- Redis -->
  <rect x="340" y="350" width="140" height="40" class="box" />
  <text x="410" y="375" class="label">Redis</text>

  <!-- Users/Clients -->
  <rect x="30" y="50" width="100" height="40" class="box" />
  <text x="80" y="75" class="label">Users/Clients</text>

  <!-- Connections -->
  <path d="M 130 70 L 350 70" class="marching-ant" /> <!-- Users to API Server -->
  <path d="M 400 90 L 260 150" class="marching-ant" /> <!-- API Server to Controller -->
  <path d="M 400 90 L 550 150" class="marching-ant" /> <!-- API Server to Repository Server -->
  <path d="M 260 190 L 410 250" class="marching-ant" /> <!-- Controller to Application Controller -->
  <path d="M 550 190 L 410 250" class="marching-ant" /> <!-- Repository Server to Application Controller -->
  <path d="M 410 290 L 410 350" class="marching-ant" /> <!-- Application Controller to Redis -->
</svg>
