<svg xmlns="http://www.w3.org/2000/svg" viewBox="0 0 900 500">
  <style>
    .box {
      fill: #FFFFFF;
      stroke: #000000;
      stroke-width: 1px;
      rx: 5;
    }
    .label {
      font-family: Arial, sans-serif;
      font-size: 12px;
      text-anchor: middle;
    }
    .dotted-line {
      fill: none;
      stroke: #000000;
      stroke-width: 1.5px;
      stroke-dasharray: 5;
      animation: dash 1.5s linear infinite;
    }
    .solid-line {
      fill: none;
      stroke: #000000;
      stroke-width: 1.5px;
      marker-end: url(#arrowhead);
    }
    @keyframes dash {
      from {
        stroke-dashoffset: 10;
      }
      to {
        stroke-dashoffset: 0;
      }
    }
  </style>
  <defs>
    <marker id="arrowhead" markerWidth="10" markerHeight="7" refX="10" refY="3.5" orient="auto">
      <polygon points="0 0, 10 3.5, 0 7" fill="#000000" />
    </marker>
  </defs>

  <!-- Title -->
  <text x="450" y="20" class="label" font-size="16" font-weight="bold">Parent and Child Pipelines</text>

  <!-- Parent Pipeline -->
  <rect x="150" y="50" width="100" height="40" class="box" />
  <text x="200" y="75" class="label">trigger_a</text>
  <rect x="650" y="50" width="100" height="40" class="box" />
  <text x="700" y="75" class="label">trigger_b</text>

  <!-- Child Pipeline A -->
  <rect x="150" y="150" width="100" height="40" class="box" />
  <text x="200" y="175" class="label">build_a</text>
  <rect x="150" y="250" width="100" height="40" class="box" />
  <text x="200" y="275" class="label">test_a</text>
  <rect x="150" y="350" width="100" height="40" class="box" />
  <text x="200" y="375" class="label">deploy_a</text>

  <!-- Child Pipeline B -->
  <rect x="650" y="150" width="100" height="40" class="box" />
  <text x="700" y="175" class="label">build_b</text>
  <rect x="650" y="250" width="100" height="40" class="box" />
  <text x="700" y="275" class="label">test_b</text>
  <rect x="650" y="350" width="100" height="40" class="box" />
  <text x="700" y="375" class="label">deploy_b</text>

  <!-- Connections -->
  <line x1="200" y1="90" x2="200" y2="150" class="dotted-line" />
  <line x1="700" y1="90" x2="700" y2="150" class="dotted-line" />
  <line x1="200" y1="190" x2="200" y2="250" class="solid-line" />
  <line x1="200" y1="290" x2="200" y2="350" class="solid-line" />
  <line x1="700" y1="190" x2="700" y2="250" class="solid-line" />
  <line x1="700" y1="290" x2="700" y2="350" class="solid-line" />
</svg>
