<svg xmlns="http://www.w3.org/2000/svg" viewBox="0 0 600 400">
  <style>
    .box {
      fill: #FFFFFF;
      stroke: #000000;
      stroke-width: 1px;
      rx: 5;
    }
    .label {
      font-family: Arial, sans-serif;
      font-size: 12px;
      text-anchor: middle;
    }
    .line {
      fill: none;
      stroke: #000000;
      stroke-width: 1.5px;
      marker-end: url(#arrowhead);
    }
  </style>
  <defs>
    <marker id="arrowhead" markerWidth="10" markerHeight="7" refX="10" refY="3.5" orient="auto">
      <polygon points="0 0, 10 3.5, 0 7" fill="#000000" />
    </marker>
  </defs>
  
  <!-- Title -->
  <text x="300" y="30" class="label" font-size="16" font-weight="bold">Pipeline using DAG</text>

  <!-- Build Stage -->
  <rect x="150" y="60" width="100" height="40" class="box" />
  <text x="200" y="85" class="label">build_a</text>
  <rect x="350" y="60" width="100" height="40" class="box" />
  <text x="400" y="85" class="label">build_b</text>

  <!-- Test Stage -->
  <rect x="150" y="160" width="100" height="40" class="box" />
  <text x="200" y="185" class="label">test_a</text>
  <rect x="350" y="160" width="100" height="40" class="box" />
  <text x="400" y="185" class="label">test_b</text>

  <!-- Deploy Stage -->
  <rect x="150" y="260" width="100" height="40" class="box" />
  <text x="200" y="285" class="label">deploy_a</text>
  <rect x="350" y="260" width="100" height="40" class="box" />
  <text x="400" y="285" class="label">deploy_b</text>

  <!-- Connections -->
  <line x1="200" y1="100" x2="200" y2="160" class="line" />
  <line x1="400" y1="100" x2="400" y2="160" class="line" />
  <line x1="200" y1="200" x2="200" y2="260" class="line" />
  <line x1="400" y1="200" x2="400" y2="260" class="line" />
</svg>
